<svg xmlns="http://www.w3.org/2000/svg" viewBox="0 0 513.388 513.388"><path d="M116.189 168.755c28.56 0 51.794-23.242 51.794-51.81 0-28.567-23.234-51.809-51.794-51.809-28.567 0-51.808 23.241-51.808 51.809.001 28.568 23.241 51.81 51.808 51.81z"/><path d="M234.548 112.67a21.843 21.843 0 0 0-15.023 5.959l-20.032 18.855c-3.952 3.719-11.351 9.655-15.834 12.703l-40.301 27.389h-60.33c-10.197 0-15.483 2.997-19.665 8.223l-26.258 32.802c-4.247 5.305-11.005 14.121-15.064 19.654L4.249 262.517a21.782 21.782 0 0 0-3.989 16.3 21.783 21.783 0 0 0 8.703 14.346 21.763 21.763 0 0 0 12.95 4.245c6.966 0 13.581-3.35 17.695-8.959l17.793-24.262.296-.402-3.761 42.027-30.774 146.156a22.96 22.96 0 0 0 3.257 17.388 22.963 22.963 0 0 0 14.598 9.992c1.574.333 3.184.502 4.786.502 10.855 0 20.359-7.721 22.598-18.358l28.801-136.778h7.5l4.113 46.168c.494 5.544.743 15.29.533 20.857l-2.424 64.117a22.964 22.964 0 0 0 6.147 16.589 22.97 22.97 0 0 0 16.081 7.384 23.036 23.036 0 0 0 23.969-22.226l2.424-64.114c.284-7.497-.015-19.229-.682-26.71l-6.151-69.033c-.017-.186-.056-.367-.076-.553l6.689-74.735 52.981-36.007c6.328-4.3 15.657-11.783 21.238-17.035l20.032-18.855c8.803-8.287 9.224-22.189.939-30.991a21.999 21.999 0 0 0-15.967-6.9zm160.399 40.085c28.566 0 51.809-23.242 51.809-51.81 0-28.567-23.242-51.809-51.809-51.809-28.559 0-51.793 23.241-51.793 51.809 0 28.568 23.235 51.81 51.793 51.81z"/><path d="M473.779 272.449c4.115 5.609 10.73 8.959 17.695 8.959 4.685 0 9.162-1.468 12.95-4.245a21.783 21.783 0 0 0 8.703-14.346 21.782 21.782 0 0 0-3.989-16.3l-17.794-24.262c-4.054-5.526-10.81-14.343-15.062-19.653l-26.26-32.803c-4.184-5.227-8.858-8.224-17.129-8.224H367.78l-40.3-27.39c-4.818-3.272-11.103-8.246-13.503-10.507l-6.346-5.973a21.835 21.835 0 0 0-15.022-5.959 22.016 22.016 0 0 0-15.97 6.897 21.782 21.782 0 0 0-5.949 15.69 21.784 21.784 0 0 0 6.888 15.301l6.344 5.97c4.331 4.079 12.46 10.461 18.908 14.845l52.98 36.005 6.689 74.731c-.021.188-.06.368-.076.557l-6.151 69.032c-.904 10.121 1.232 24.295 5.079 33.703l18.376 44.959a23.04 23.04 0 0 0 21.405 14.376c3.001 0 5.94-.58 8.737-1.725a22.958 22.958 0 0 0 12.569-12.451 22.958 22.958 0 0 0 .083-17.69l-18.378-44.964c-1.068-2.614-2.074-9.288-1.823-12.104l4.114-46.168h7.499l10.962 52.053c2.028 9.626 8.021 17.822 16.439 22.486 4.854 2.691 10.392 4.113 16.014 4.113 4.011 0 7.97-.706 11.769-2.099l24.201-8.869c11.968-4.387 18.137-17.69 13.751-29.657-3.324-9.073-12.046-15.169-21.704-15.169-2.711 0-5.388.477-7.954 1.418l-10.323 3.783-9.89-46.955-4.068-45.466a392.188 392.188 0 0 1 2.853 3.836l17.796 24.265zM282.597 79.569a7.5 7.5 0 0 0 1.849.232 7.503 7.503 0 0 0 7.264-5.659c2.409-9.501 8.46-23.929 13.555-26.307a7.5 7.5 0 0 0 3.624-9.968 7.497 7.497 0 0 0-9.968-3.624c-13.568 6.332-20.499 31.276-21.75 36.213a7.496 7.496 0 0 0 5.426 9.113zM247.984 59.88a7.502 7.502 0 0 0-9.969 3.625 7.502 7.502 0 0 0 3.625 9.969c5.069 2.365 11.13 16.8 13.557 26.311a7.502 7.502 0 0 0 7.263 5.654 7.499 7.499 0 0 0 7.276-9.344c-1.252-4.938-8.182-29.882-21.752-36.215z"/></svg>