<svg xmlns="http://www.w3.org/2000/svg" width="47.001" height="47.001" viewBox="0 0 47.001 47.001"><path d="M44.845 42.718H2.136a2.136 2.136 0 1 0 0 4.272h42.708a2.135 2.135 0 1 0 .001-4.272zm-40.04-5.553a2.136 2.136 0 1 0 0 4.273h37.37a2.136 2.136 0 0 0 0-4.273h-.533v-19.22h.533a1.066 1.066 0 1 0 0-2.134H4.805a1.067 1.067 0 1 0 0 2.134h.534v19.219h-.534zm32.565-19.22v19.219h-6.406V17.945h6.406zm-10.678 0v19.219h-6.406V17.945h6.406zm-17.083 0h6.406v19.219H9.609V17.945zm-7.473-4.054h42.729a2.135 2.135 0 0 0 .693-4.157L24.368.199a2.14 2.14 0 0 0-1.752 0L1.26 9.808a2.135 2.135 0 0 0 .876 4.083z"/></svg>