<?xml version="1.0" encoding="iso-8859-1"?>
<!-- Generator: Adobe Illustrator 17.1.0, SVG Export Plug-In . SVG Version: 6.00 Build 0)  -->
<!DOCTYPE svg PUBLIC "-//W3C//DTD SVG 1.1//EN" "http://www.w3.org/Graphics/SVG/1.1/DTD/svg11.dtd">
<svg version="1.1" id="Capa_1" xmlns="http://www.w3.org/2000/svg" xmlns:xlink="http://www.w3.org/1999/xlink" x="0px" y="0px"
	 viewBox="0 0 513.388 513.388" style="enable-background:new 0 0 513.388 513.388;" xml:space="preserve">
<g>
	<path d="M116.189,168.755c28.56,0,51.794-23.242,51.794-51.81c0-28.567-23.234-51.809-51.794-51.809
		c-28.567,0-51.808,23.241-51.808,51.809C64.382,145.513,87.622,168.755,116.189,168.755z"/>
	<path d="M234.548,112.67c-5.604,0-10.939,2.116-15.023,5.959l-20.032,18.855c-3.952,3.719-11.351,9.655-15.834,12.703
		l-40.301,27.389H83.028c-10.197,0-15.483,2.997-19.665,8.223l-26.258,32.802c-4.247,5.305-11.005,14.121-15.064,19.654
		L4.249,262.517c-3.463,4.723-4.88,10.512-3.989,16.3c0.891,5.788,3.981,10.883,8.703,14.346c3.788,2.777,8.266,4.245,12.95,4.245
		c6.966,0,13.581-3.35,17.695-8.959l17.793-24.262c0.095-0.129,0.198-0.269,0.296-0.402l-3.761,42.027L23.162,451.968
		c-1.272,6.041-0.116,12.217,3.257,17.388c3.373,5.172,8.559,8.721,14.598,9.992c1.574,0.333,3.184,0.502,4.786,0.502
		c10.855,0,20.359-7.721,22.598-18.358l28.801-136.778h7.5l4.113,46.168c0.494,5.544,0.743,15.29,0.533,20.857l-2.424,64.117
		c-0.233,6.17,1.949,12.061,6.147,16.589c4.198,4.528,9.908,7.15,16.081,7.384c0.296,0.011,0.591,0.018,0.884,0.018
		c12.474,0,22.614-9.771,23.085-22.244l2.424-64.114c0.284-7.497-0.015-19.229-0.682-26.71l-6.151-69.033
		c-0.017-0.186-0.056-0.367-0.076-0.553l6.689-74.735l52.981-36.007c6.328-4.3,15.657-11.783,21.238-17.035l20.032-18.855
		c8.803-8.287,9.224-22.189,0.939-30.991C246.391,115.184,240.57,112.67,234.548,112.67z"/>
	<path d="M394.947,152.755c28.566,0,51.809-23.242,51.809-51.81c0-28.567-23.242-51.809-51.809-51.809
		c-28.559,0-51.793,23.241-51.793,51.809C343.154,129.513,366.389,152.755,394.947,152.755z"/>
	<path d="M473.779,272.449c4.115,5.609,10.73,8.959,17.695,8.959c4.685,0,9.162-1.468,12.95-4.245
		c4.722-3.463,7.812-8.558,8.703-14.346c0.891-5.788-0.526-11.577-3.989-16.3l-17.794-24.262
		c-4.054-5.526-10.81-14.343-15.062-19.653l-26.26-32.803c-4.184-5.227-8.858-8.224-17.129-8.224c-0.207,0-65.113,0-65.113,0
		l-40.3-27.39c-4.818-3.272-11.103-8.246-13.503-10.507l-6.346-5.973c-4.082-3.843-9.417-5.959-15.022-5.959
		c-6.023,0-11.844,2.514-15.97,6.897c-4.014,4.265-6.126,9.837-5.949,15.69c0.178,5.854,2.624,11.287,6.888,15.301l6.344,5.97
		c4.331,4.079,12.46,10.461,18.908,14.845l52.98,36.005l6.689,74.731c-0.021,0.188-0.06,0.368-0.076,0.557l-6.151,69.032
		c-0.904,10.121,1.232,24.295,5.079,33.703l18.376,44.959c3.569,8.733,11.972,14.376,21.405,14.376c3.001,0,5.94-0.58,8.737-1.725
		c5.716-2.335,10.179-6.757,12.569-12.451c2.39-5.693,2.419-11.977,0.083-17.69l-18.378-44.964
		c-1.068-2.614-2.074-9.288-1.823-12.104l4.114-46.168h7.499l10.962,52.053c2.028,9.626,8.021,17.822,16.439,22.486
		c4.854,2.691,10.392,4.113,16.014,4.113c4.011,0,7.97-0.706,11.769-2.099l24.201-8.869c11.968-4.387,18.137-17.69,13.751-29.657
		c-3.324-9.073-12.046-15.169-21.704-15.169c-2.711,0-5.388,0.477-7.954,1.418l-10.323,3.783l-9.89-46.955l-4.068-45.466
		c1.049,1.395,2.023,2.703,2.853,3.836L473.779,272.449z"/>
	<path d="M282.597,79.569c0.618,0.157,1.238,0.232,1.849,0.232c3.35,0,6.403-2.262,7.264-5.659
		c2.409-9.501,8.46-23.929,13.555-26.307c3.753-1.751,5.376-6.214,3.624-9.968c-1.75-3.753-6.213-5.378-9.968-3.624
		c-13.568,6.332-20.499,31.276-21.75,36.213C276.151,74.472,278.581,78.552,282.597,79.569z"/>
	<path d="M247.984,59.88c-3.752-1.751-8.216-0.129-9.969,3.625c-1.751,3.754-0.128,8.217,3.625,9.969
		c5.069,2.365,11.13,16.8,13.557,26.311c0.863,3.395,3.914,5.654,7.263,5.654c0.61,0,1.23-0.075,1.849-0.232
		c4.016-1.018,6.445-5.098,5.427-9.112C268.484,91.157,261.554,66.213,247.984,59.88z"/>
</g>
<g>
</g>
<g>
</g>
<g>
</g>
<g>
</g>
<g>
</g>
<g>
</g>
<g>
</g>
<g>
</g>
<g>
</g>
<g>
</g>
<g>
</g>
<g>
</g>
<g>
</g>
<g>
</g>
<g>
</g>
</svg>
